<mxfile host="app.diagrams.net" modified="2021-09-22T10:27:53.894Z" agent="5.0 (Macintosh; Intel Mac OS X 10_14_6) AppleWebKit/537.36 (KHTML, like Gecko) Chrome/94.0.4606.54 Safari/537.36" etag="079ez5cu0zuTp_g_a0A8" version="15.2.9" type="github">
  <diagram name="Page-1" id="c7488fd3-1785-93aa-aadb-54a6760d102a">
    <mxGraphModel dx="1694" dy="891" grid="1" gridSize="10" guides="1" tooltips="1" connect="1" arrows="1" fold="1" page="1" pageScale="1" pageWidth="1100" pageHeight="850" background="none" math="0" shadow="0">
      <root>
        <mxCell id="0" />
        <mxCell id="1" parent="0" />
        <mxCell id="GOpi0iKPsD8S0dPwmGbc-4" style="edgeStyle=orthogonalEdgeStyle;rounded=0;orthogonalLoop=1;jettySize=auto;html=1;entryX=0.5;entryY=0;entryDx=0;entryDy=0;" edge="1" parent="1" source="2b4e8129b02d487f-5" target="2b4e8129b02d487f-6">
          <mxGeometry relative="1" as="geometry" />
        </mxCell>
        <mxCell id="2b4e8129b02d487f-5" value="Start app&amp;nbsp;" style="ellipse;whiteSpace=wrap;html=1;rounded=0;shadow=0;labelBackgroundColor=none;strokeWidth=1;fontFamily=Verdana;fontSize=8;align=center;" parent="1" vertex="1">
          <mxGeometry x="475" y="20" width="90" height="90" as="geometry" />
        </mxCell>
        <mxCell id="GOpi0iKPsD8S0dPwmGbc-9" style="edgeStyle=orthogonalEdgeStyle;rounded=0;orthogonalLoop=1;jettySize=auto;html=1;" edge="1" parent="1" source="2b4e8129b02d487f-6" target="GOpi0iKPsD8S0dPwmGbc-8">
          <mxGeometry relative="1" as="geometry" />
        </mxCell>
        <mxCell id="2b4e8129b02d487f-6" value="We will show style(dark or light) according to the current time (after sunrise or sunset) instead of original according to device setting." style="rounded=1;whiteSpace=wrap;html=1;shadow=0;labelBackgroundColor=none;strokeWidth=1;fontFamily=Verdana;fontSize=8;align=center;" parent="1" vertex="1">
          <mxGeometry x="360" y="160" width="320" height="110" as="geometry" />
        </mxCell>
        <mxCell id="GOpi0iKPsD8S0dPwmGbc-22" style="edgeStyle=orthogonalEdgeStyle;orthogonalLoop=1;jettySize=auto;html=1;strokeWidth=1;entryX=0.5;entryY=0;entryDx=0;entryDy=0;" edge="1" parent="1" source="GOpi0iKPsD8S0dPwmGbc-8" target="GOpi0iKPsD8S0dPwmGbc-14">
          <mxGeometry relative="1" as="geometry">
            <mxPoint x="220" y="410" as="targetPoint" />
          </mxGeometry>
        </mxCell>
        <mxCell id="GOpi0iKPsD8S0dPwmGbc-26" value="Yes" style="edgeLabel;html=1;align=center;verticalAlign=middle;resizable=0;points=[];" vertex="1" connectable="0" parent="GOpi0iKPsD8S0dPwmGbc-22">
          <mxGeometry x="-0.5502" relative="1" as="geometry">
            <mxPoint x="-82" y="70" as="offset" />
          </mxGeometry>
        </mxCell>
        <mxCell id="GOpi0iKPsD8S0dPwmGbc-23" style="edgeStyle=orthogonalEdgeStyle;orthogonalLoop=1;jettySize=auto;html=1;entryX=0.5;entryY=0;entryDx=0;entryDy=0;endArrow=classic;endFill=1;strokeWidth=1;exitX=1;exitY=0.5;exitDx=0;exitDy=0;" edge="1" parent="1" source="GOpi0iKPsD8S0dPwmGbc-8" target="GOpi0iKPsD8S0dPwmGbc-15">
          <mxGeometry relative="1" as="geometry">
            <Array as="points">
              <mxPoint x="760" y="370" />
              <mxPoint x="760" y="580" />
            </Array>
          </mxGeometry>
        </mxCell>
        <mxCell id="GOpi0iKPsD8S0dPwmGbc-27" value="No" style="edgeLabel;html=1;align=center;verticalAlign=middle;resizable=0;points=[];" vertex="1" connectable="0" parent="GOpi0iKPsD8S0dPwmGbc-23">
          <mxGeometry x="-0.6734" y="5" relative="1" as="geometry">
            <mxPoint x="104" y="75" as="offset" />
          </mxGeometry>
        </mxCell>
        <mxCell id="GOpi0iKPsD8S0dPwmGbc-8" value="Whether COR transform mode manually&amp;nbsp;" style="rhombus;whiteSpace=wrap;html=1;" vertex="1" parent="1">
          <mxGeometry x="450" y="300" width="140" height="140" as="geometry" />
        </mxCell>
        <mxCell id="GOpi0iKPsD8S0dPwmGbc-34" style="orthogonalLoop=1;jettySize=auto;html=1;entryX=0.5;entryY=0;entryDx=0;entryDy=0;endArrow=classic;endFill=1;strokeWidth=1;dashed=1;" edge="1" parent="1" source="GOpi0iKPsD8S0dPwmGbc-14" target="GOpi0iKPsD8S0dPwmGbc-33">
          <mxGeometry relative="1" as="geometry">
            <Array as="points">
              <mxPoint x="510" y="640" />
            </Array>
          </mxGeometry>
        </mxCell>
        <mxCell id="GOpi0iKPsD8S0dPwmGbc-14" value="Always show the style according to the COR operation result" style="rounded=1;whiteSpace=wrap;html=1;shadow=0;labelBackgroundColor=none;strokeWidth=1;fontFamily=Verdana;fontSize=8;align=center;" vertex="1" parent="1">
          <mxGeometry x="170" y="580" width="210" height="120" as="geometry" />
        </mxCell>
        <mxCell id="GOpi0iKPsD8S0dPwmGbc-35" style="edgeStyle=none;orthogonalLoop=1;jettySize=auto;html=1;entryX=0.5;entryY=0;entryDx=0;entryDy=0;endArrow=classic;endFill=1;strokeWidth=1;dashed=1;" edge="1" parent="1" source="GOpi0iKPsD8S0dPwmGbc-15" target="GOpi0iKPsD8S0dPwmGbc-33">
          <mxGeometry relative="1" as="geometry">
            <Array as="points">
              <mxPoint x="510" y="640" />
            </Array>
          </mxGeometry>
        </mxCell>
        <mxCell id="GOpi0iKPsD8S0dPwmGbc-15" value="We will automatically change the style when sunrise and sunset" style="rounded=1;whiteSpace=wrap;html=1;shadow=0;labelBackgroundColor=none;strokeWidth=1;fontFamily=Verdana;fontSize=8;align=center;" vertex="1" parent="1">
          <mxGeometry x="650" y="585" width="220" height="110" as="geometry" />
        </mxCell>
        <mxCell id="GOpi0iKPsD8S0dPwmGbc-31" style="orthogonalLoop=1;jettySize=auto;html=1;endArrow=classic;endFill=1;strokeWidth=1;dashed=1;" edge="1" parent="1" source="GOpi0iKPsD8S0dPwmGbc-28">
          <mxGeometry relative="1" as="geometry">
            <mxPoint x="760" y="490" as="targetPoint" />
          </mxGeometry>
        </mxCell>
        <mxCell id="GOpi0iKPsD8S0dPwmGbc-32" style="orthogonalLoop=1;jettySize=auto;html=1;endArrow=classic;endFill=1;strokeWidth=1;dashed=1;" edge="1" parent="1" source="GOpi0iKPsD8S0dPwmGbc-28">
          <mxGeometry relative="1" as="geometry">
            <mxPoint x="280" y="490" as="targetPoint" />
          </mxGeometry>
        </mxCell>
        <mxCell id="GOpi0iKPsD8S0dPwmGbc-28" value="Restart app" style="rounded=0;whiteSpace=wrap;html=1;dashed=1;" vertex="1" parent="1">
          <mxGeometry x="460" y="460" width="120" height="60" as="geometry" />
        </mxCell>
        <mxCell id="GOpi0iKPsD8S0dPwmGbc-36" style="edgeStyle=orthogonalEdgeStyle;orthogonalLoop=1;jettySize=auto;html=1;endArrow=classic;endFill=1;strokeWidth=1;entryX=1;entryY=0.5;entryDx=0;entryDy=0;dashed=1;" edge="1" parent="1" source="GOpi0iKPsD8S0dPwmGbc-33" target="2b4e8129b02d487f-5">
          <mxGeometry relative="1" as="geometry">
            <mxPoint x="880" y="60" as="targetPoint" />
            <Array as="points">
              <mxPoint x="940" y="790" />
              <mxPoint x="940" y="65" />
            </Array>
          </mxGeometry>
        </mxCell>
        <mxCell id="GOpi0iKPsD8S0dPwmGbc-37" style="edgeStyle=orthogonalEdgeStyle;orthogonalLoop=1;jettySize=auto;html=1;endArrow=classic;endFill=1;strokeWidth=1;dashed=1;" edge="1" parent="1" source="GOpi0iKPsD8S0dPwmGbc-33">
          <mxGeometry relative="1" as="geometry">
            <mxPoint x="470" y="70" as="targetPoint" />
            <Array as="points">
              <mxPoint x="80" y="790" />
              <mxPoint x="80" y="70" />
            </Array>
          </mxGeometry>
        </mxCell>
        <mxCell id="GOpi0iKPsD8S0dPwmGbc-33" value="Logout&amp;nbsp;" style="rounded=0;whiteSpace=wrap;html=1;" vertex="1" parent="1">
          <mxGeometry x="450" y="760" width="120" height="60" as="geometry" />
        </mxCell>
      </root>
    </mxGraphModel>
  </diagram>
</mxfile>
